Marlette-Block-Backup.ufo
<glyph name="exclam" format="2">
  <advance width="362"/>
  <unicode hex="0021"/>
  <guideline x="150.5" y="0" angle="90.0" identifier="qz4SSJ5JJp"/>
  <outline>
    <contour>
      <point x="174" y="278" type="line"/>
      <point x="174" y="311" type="line" smooth="yes"/>
      <point x="174" y="402"/>
      <point x="322" y="460"/>
      <point x="322" y="592" type="curve" smooth="yes"/>
      <point x="322" y="655"/>
      <point x="296" y="757"/>
      <point x="161" y="757" type="curve"/>
      <point x="26" y="757"/>
      <point x="0" y="655"/>
      <point x="0" y="592" type="curve" smooth="yes"/>
      <point x="0" y="460"/>
      <point x="148" y="402"/>
      <point x="148" y="311" type="curve" smooth="yes"/>
      <point x="148" y="278" type="line"/>
    </contour>
    <component base="sym_condensed_dot" xOffset="10"/>
  </outline>
</glyph>
<glyph name="dollar" format="2">
  <advance width="673"/>
  <unicode hex="0024"/>
  <outline>
    <contour>
      <point x="300.5" y="-80" type="curve"/>
      <point x="332.5" y="-80" type="line"/>
      <point x="330.5" y="27"/>
      <point x="330.5" y="225"/>
      <point x="330.5" y="375" type="curve" smooth="yes"/>
      <point x="330.5" y="524"/>
      <point x="330.5" y="626"/>
      <point x="332.5" y="818" type="curve"/>
      <point x="300.5" y="818" type="line"/>
      <point x="302.5" y="626"/>
      <point x="302.5" y="524"/>
      <point x="302.5" y="375" type="curve" smooth="yes"/>
      <point x="302.5" y="225"/>
      <point x="302.5" y="27"/>
    </contour>
    <component base="S"/>
  </outline>
</glyph>
<glyph name="one" format="2">
  <advance width="448"/>
  <unicode hex="0031"/>
  <outline>
    <contour>
      <point x="170" y="750" type="line"/>
      <point x="170" y="668"/>
      <point x="81" y="606"/>
      <point x="16" y="606" type="curve"/>
      <point x="2" y="408" type="line"/>
      <point x="107" y="408"/>
      <point x="172" y="451"/>
      <point x="172" y="592" type="curve"/>
      <point x="192" y="592" type="line"/>
      <point x="192" y="341" type="line"/>
      <point x="192" y="248"/>
      <point x="63" y="247"/>
      <point x="0" y="247" type="curve"/>
      <point x="0" y="-1" type="line"/>
      <point x="408" y="-1" type="line"/>
      <point x="408" y="247" type="line"/>
      <point x="345" y="247"/>
      <point x="285" y="263"/>
      <point x="285" y="361" type="curve" smooth="yes"/>
      <point x="285" y="750" type="line"/>
    </contour>
  </outline>
</glyph>
<glyph name="five" format="2">
  <advance width="600"/>
  <unicode hex="0035"/>
  <outline>
    <contour>
      <point x="0" y="324" type="line"/>
      <point x="186" y="324" type="line"/>
      <point x="186" y="324"/>
      <point x="203" y="390"/>
      <point x="264" y="390" type="curve" smooth="yes"/>
      <point x="325" y="390"/>
      <point x="347" y="354"/>
      <point x="354" y="323" type="curve" smooth="yes"/>
      <point x="360" y="297"/>
      <point x="344" y="230"/>
      <point x="256" y="216" type="curve" smooth="yes"/>
      <point x="170" y="202"/>
      <point x="72" y="249"/>
      <point x="66" y="267" type="curve"/>
      <point x="0" y="267" type="line"/>
      <point x="0" y="141" type="line"/>
      <point x="21" y="77"/>
      <point x="108" y="-3"/>
      <point x="240" y="-9" type="curve" smooth="yes"/>
      <point x="405" y="-17"/>
      <point x="561" y="97"/>
      <point x="560" y="235" type="curve" smooth="yes"/>
      <point x="559" y="354"/>
      <point x="461" y="446"/>
      <point x="297" y="446" type="curve" smooth="yes"/>
      <point x="262" y="446"/>
      <point x="211" y="432"/>
      <point x="186" y="399" type="curve"/>
      <point x="167" y="399" type="line"/>
      <point x="167" y="497" type="line"/>
      <point x="197" y="518"/>
      <point x="243" y="533"/>
      <point x="277" y="533" type="curve" smooth="yes"/>
      <point x="351" y="533"/>
      <point x="409" y="494"/>
      <point x="409" y="465" type="curve"/>
      <point x="537" y="465" type="line"/>
      <point x="537" y="723" type="line"/>
      <point x="494" y="754"/>
      <point x="439" y="768"/>
      <point x="381" y="763" type="curve" smooth="yes"/>
      <point x="299" y="756"/>
      <point x="279" y="715"/>
      <point x="224" y="715" type="curve" smooth="yes"/>
      <point x="200" y="715"/>
      <point x="184" y="721"/>
      <point x="182" y="750" type="curve"/>
      <point x="0" y="750" type="line"/>
    </contour>
  </outline>
</glyph>
<glyph name="F" format="2">
  <advance width="576"/>
  <unicode hex="0046"/>
  <outline>
    <contour>
      <point x="158" y="247" type="line"/>
      <point x="198" y="208" type="line"/>
      <point x="198" y="339" type="line"/>
      <point x="497" y="262" type="line" name="_p_cornerRadius:146"/>
      <point x="497" y="408" type="line"/>
      <point x="264" y="408" type="line" smooth="yes"/>
      <point x="173.0" y="408.0"/>
      <point x="174.0" y="551.0"/>
      <point x="265" y="551" type="curve" smooth="yes"/>
      <point x="331.0" y="551.0"/>
      <point x="343" y="491"/>
      <point x="349" y="461" type="curve"/>
      <point x="556" y="461" type="line"/>
      <point x="556" y="750" type="line"/>
      <point x="30" y="750" type="line"/>
      <point x="0" y="501" type="line"/>
      <point x="105" y="501" type="line"/>
      <point x="105" y="311" type="line" smooth="yes"/>
      <point x="105.0" y="264.0"/>
      <point x="88.0" y="247.0"/>
      <point x="41" y="247" type="curve" smooth="yes"/>
      <point x="0" y="247" type="line"/>
      <point x="0" y="-1" type="line"/>
      <point x="1" y="1" type="line"/>
      <point x="1" y="-1" type="line"/>
      <point x="347" y="-1" type="line"/>
      <point x="347" y="247" type="line"/>
    </contour>
  </outline>
</glyph>
<glyph name="J" format="2">
  <advance width="493"/>
  <unicode hex="004A"/>
  <outline>
    <contour>
      <point x="453" y="750" type="line"/>
      <point x="452" y="502" type="line"/>
      <point x="452" y="352" type="line"/>
      <point x="452" y="180"/>
      <point x="423" y="-1"/>
      <point x="164" y="-1" type="curve"/>
      <point x="1" y="-1" type="line"/>
      <point x="1" y="312" type="line"/>
      <point x="82" y="312" type="line"/>
      <point x="82" y="312"/>
      <point x="75" y="198"/>
      <point x="149" y="198" type="curve"/>
      <point x="238" y="198"/>
      <point x="233" y="335"/>
      <point x="233" y="335" type="curve"/>
      <point x="233" y="388" type="line" smooth="yes"/>
      <point x="233" y="486"/>
      <point x="174" y="502"/>
      <point x="111" y="502" type="curve"/>
      <point x="111" y="502"/>
      <point x="0" y="502"/>
      <point x="0" y="502" type="curve"/>
      <point x="37" y="750" type="line"/>
    </contour>
  </outline>
</glyph>
<glyph name="W" format="2">
  <advance width="1048"/>
  <unicode hex="0057"/>
  <outline>
    <contour>
      <point x="0" y="502" type="line"/>
      <point x="133" y="502" type="line"/>
      <point x="272" y="-1" type="line"/>
      <point x="517" y="-1" type="line"/>
      <point x="517" y="248" type="line"/>
      <point x="483" y="248"/>
      <point x="463.98198272995904" y="270.0027349212458"/>
      <point x="469" y="303" type="curve" smooth="yes"/>
      <point x="502" y="520" type="line"/>
      <point x="486" y="519" type="line"/>
      <point x="629" y="-1" type="line"/>
      <point x="884" y="-1" type="line"/>
      <point x="884" y="248" type="line"/>
      <point x="844" y="248"/>
      <point x="823.6906971675756" y="273.8823224389693"/>
      <point x="830" y="313" type="curve" smooth="yes"/>
      <point x="835" y="344" type="line" smooth="yes"/>
      <point x="856.3353642753686" y="476.2792585072857"/>
      <point x="912.0" y="502.0"/>
      <point x="975" y="502" type="curve" smooth="yes"/>
      <point x="1028" y="502" type="line"/>
      <point x="1028" y="750" type="line"/>
      <point x="838" y="750"/>
      <point x="832.3364604109491" y="655.9365109698114"/>
      <point x="785" y="406" type="curve" smooth="yes"/>
      <point x="760" y="274" type="line"/>
      <point x="698" y="440" type="line" smooth="yes"/>
      <point x="687.1478846466086" y="469.0556636881123"/>
      <point x="710.0" y="502.0"/>
      <point x="741" y="502" type="curve" smooth="yes"/>
      <point x="753" y="502" type="line"/>
      <point x="753" y="750" type="line"/>
      <point x="393" y="750" type="line"/>
      <point x="359" y="502" type="line"/>
      <point x="446" y="502" type="line"/>
      <point x="403" y="274" type="line"/>
      <point x="287" y="586" type="line" smooth="yes"/>
      <point x="245.76337192998392" y="696.9123099814226"/>
      <point x="170.0" y="750.0"/>
      <point x="51" y="750" type="curve" smooth="yes"/>
      <point x="33" y="750" type="line"/>
    </contour>
  </outline>
</glyph>
<glyph name="b" format="2">
  <advance width="703"/>
  <unicode hex="0062"/>
  <outline>
    <contour>
      <point x="0" y="750" type="line"/>
      <point x="0" y="502" type="line"/>
      <point x="14" y="502"/>
      <point x="62" y="497"/>
      <point x="62" y="433" type="curve" smooth="yes"/>
      <point x="62" y="-1" type="line"/>
      <point x="180" y="-1" type="line"/>
      <point x="180" y="14"/>
      <point x="195" y="43"/>
      <point x="219" y="43" type="curve"/>
      <point x="292" y="43"/>
      <point x="281" y="-17"/>
      <point x="451" y="-17" type="curve" smooth="yes"/>
      <point x="595" y="-17"/>
      <point x="663" y="142"/>
      <point x="663" y="327" type="curve" smooth="yes"/>
      <point x="663" y="512"/>
      <point x="601" y="651"/>
      <point x="451" y="651" type="curve" smooth="yes"/>
      <point x="250" y="651"/>
      <point x="222" y="386"/>
      <point x="222" y="386" type="curve"/>
      <point x="202" y="386" type="line"/>
      <point x="202" y="472" type="line" smooth="yes"/>
      <point x="202" y="563"/>
      <point x="242" y="666"/>
      <point x="318" y="686" type="curve"/>
      <point x="318" y="750" type="line"/>
    </contour>
    <contour>
      <point x="354" y="233" type="curve" smooth="yes"/>
      <point x="301" y="233"/>
      <point x="259" y="276"/>
      <point x="259" y="329" type="curve" smooth="yes"/>
      <point x="259" y="384"/>
      <point x="301" y="426"/>
      <point x="354" y="426" type="curve" smooth="yes"/>
      <point x="408" y="426"/>
      <point x="451" y="384"/>
      <point x="451" y="329" type="curve" smooth="yes"/>
      <point x="451" y="276"/>
      <point x="408" y="233"/>
    </contour>
  </outline>
</glyph>
<glyph name="e" format="2">
  <advance width="572"/>
  <unicode hex="0065"/>
  <outline>
    <contour>
      <point x="478" y="363" type="line"/>
      <point x="478" y="299"/>
      <point x="413" y="232"/>
      <point x="281" y="232" type="curve" smooth="yes"/>
      <point x="156" y="232"/>
      <point x="92" y="316"/>
      <point x="92" y="393" type="curve"/>
      <point x="531" y="393" type="line"/>
      <point x="531" y="393"/>
      <point x="546" y="648"/>
      <point x="281" y="648" type="curve" smooth="yes"/>
      <point x="141" y="648"/>
      <point x="0" y="576"/>
      <point x="0" y="318" type="curve" smooth="yes"/>
      <point x="0" y="60"/>
      <point x="141" y="-10"/>
      <point x="281" y="-10" type="curve"/>
      <point x="497" y="-10"/>
      <point x="532" y="118"/>
      <point x="532" y="118" type="curve"/>
      <point x="532" y="363" type="line"/>
    </contour>
    <contour>
      <point x="95" y="437" type="line"/>
      <point x="95" y="437"/>
      <point x="95" y="543"/>
      <point x="210" y="543" type="curve" smooth="yes"/>
      <point x="323" y="543"/>
      <point x="323" y="437"/>
      <point x="323" y="437" type="curve"/>
    </contour>
  </outline>
</glyph>
<glyph name="f" format="2">
  <advance width="288"/>
  <unicode hex="0066"/>
  <guideline x="-265" y="561" angle="0" identifier="GoRlytsgeC"/>
  <guideline x="-94" y="817" angle="0" identifier="oTgZ5RDDY7"/>
  <guideline x="202" y="369" angle="90" identifier="c2CQXINKNX"/>
  <guideline x="258" y="622" angle="90" identifier="RLVVrbqIY0"/>
  <outline>
    <contour>
      <point x="62" y="314" type="line"/>
      <point x="62" y="254"/>
      <point x="14" y="247"/>
      <point x="0" y="247" type="curve"/>
      <point x="0" y="-1" type="line"/>
      <point x="258" y="-1" type="line"/>
      <point x="258" y="247" type="line"/>
      <point x="241" y="247"/>
      <point x="202" y="250"/>
      <point x="202" y="314" type="curve"/>
      <point x="202" y="433" type="line"/>
      <point x="258" y="433" type="line"/>
      <point x="258" y="556" type="line"/>
      <point x="0" y="523" type="line"/>
      <point x="0" y="433" type="line"/>
      <point x="14" y="433"/>
      <point x="62" y="426"/>
      <point x="62" y="366" type="curve"/>
    </contour>
    <contour>
      <point x="258" y="546" type="move"/>
      <point x="258" y="603" type="line"/>
      <point x="104" y="581" type="line" smooth="yes"/>
      <point x="46" y="573"/>
      <point x="43" y="643"/>
      <point x="91" y="650" type="curve" smooth="yes"/>
      <point x="258" y="673" type="line"/>
      <point x="258" y="817" type="line"/>
      <point x="121" y="798" type="line" smooth="yes"/>
      <point x="51" y="788"/>
      <point x="0" y="747"/>
      <point x="0" y="672" type="curve" smooth="yes"/>
      <point x="0" y="583"/>
      <point x="56" y="551"/>
      <point x="105" y="557" type="curve" smooth="yes"/>
      <point x="130" y="560" type="line"/>
      <point x="130" y="535" type="line"/>
    </contour>
  </outline>
</glyph>
<glyph name="h" format="2">
  <advance width="662"/>
  <unicode hex="0068"/>
  <outline>
    <contour>
      <point x="0" y="750" type="line"/>
      <point x="0" y="502" type="line"/>
      <point x="14" y="502"/>
      <point x="62" y="497"/>
      <point x="62" y="433" type="curve" smooth="yes"/>
      <point x="62" y="316" type="line" smooth="yes"/>
      <point x="62" y="252"/>
      <point x="14" y="247"/>
      <point x="0" y="247" type="curve"/>
      <point x="0" y="-1" type="line"/>
      <point x="258" y="-1" type="line"/>
      <point x="258" y="247" type="line"/>
      <point x="241" y="247"/>
      <point x="202" y="252"/>
      <point x="202" y="316" type="curve" smooth="yes"/>
      <point x="202" y="331" type="line" smooth="yes"/>
      <point x="202" y="369"/>
      <point x="221" y="413"/>
      <point x="284" y="413" type="curve"/>
      <point x="338" y="413"/>
      <point x="369" y="386"/>
      <point x="369" y="331" type="curve" smooth="yes"/>
      <point x="369" y="316" type="line" smooth="yes"/>
      <point x="369" y="252"/>
      <point x="317" y="247"/>
      <point x="300" y="247" type="curve"/>
      <point x="300" y="-1" type="line"/>
      <point x="622" y="-1" type="line"/>
      <point x="622" y="247" type="line"/>
      <point x="608" y="247"/>
      <point x="560" y="252"/>
      <point x="560" y="316" type="curve" smooth="yes"/>
      <point x="560" y="422" type="line"/>
      <point x="559" y="558"/>
      <point x="519" y="651"/>
      <point x="369" y="651" type="curve" smooth="yes"/>
      <point x="168" y="651"/>
      <point x="179" y="386"/>
      <point x="179" y="386" type="curve"/>
      <point x="159" y="386" type="line"/>
      <point x="159" y="472" type="line" smooth="yes"/>
      <point x="159" y="563"/>
      <point x="199" y="666"/>
      <point x="275" y="686" type="curve"/>
      <point x="275" y="749" type="line"/>
    </contour>
  </outline>
</glyph>
<glyph name="m" format="2">
  <advance width="1020"/>
  <unicode hex="006D"/>
  <outline>
    <contour>
      <point x="0" y="640" type="line"/>
      <point x="0" y="392" type="line"/>
      <point x="14" y="392"/>
      <point x="62" y="388"/>
      <point x="62" y="316" type="curve" smooth="yes"/>
      <point x="62" y="252"/>
      <point x="14" y="247"/>
      <point x="0" y="247" type="curve"/>
      <point x="0" y="-1" type="line"/>
      <point x="258" y="-1" type="line"/>
      <point x="258" y="247" type="line"/>
      <point x="241" y="247"/>
      <point x="202" y="252"/>
      <point x="202" y="316" type="curve" smooth="yes"/>
      <point x="202" y="331" type="line"/>
      <point x="202" y="369"/>
      <point x="221" y="413"/>
      <point x="284" y="413" type="curve"/>
      <point x="338" y="413"/>
      <point x="369" y="386"/>
      <point x="369" y="331" type="curve"/>
      <point x="369" y="316" type="line"/>
      <point x="369" y="252"/>
      <point x="317" y="247"/>
      <point x="300" y="247" type="curve"/>
      <point x="300" y="-1" type="line"/>
      <point x="616" y="-1" type="line"/>
      <point x="616" y="247" type="line"/>
      <point x="599" y="247"/>
      <point x="560" y="252"/>
      <point x="560" y="316" type="curve" smooth="yes"/>
      <point x="560" y="331" type="line"/>
      <point x="560" y="369"/>
      <point x="579" y="413"/>
      <point x="642" y="413" type="curve"/>
      <point x="696" y="413"/>
      <point x="727" y="386"/>
      <point x="727" y="331" type="curve"/>
      <point x="727" y="316" type="line"/>
      <point x="727" y="252"/>
      <point x="675" y="247"/>
      <point x="658" y="247" type="curve"/>
      <point x="658" y="-1" type="line"/>
      <point x="980" y="-1" type="line"/>
      <point x="980" y="247" type="line"/>
      <point x="966" y="247"/>
      <point x="918" y="252"/>
      <point x="918" y="316" type="curve"/>
      <point x="918" y="422" type="line"/>
      <point x="917" y="558"/>
      <point x="877" y="651"/>
      <point x="727" y="651" type="curve" smooth="yes"/>
      <point x="526" y="651"/>
      <point x="537" y="386"/>
      <point x="537" y="386" type="curve"/>
      <point x="517" y="386" type="line"/>
      <point x="517" y="422" type="line"/>
      <point x="516" y="558"/>
      <point x="464" y="651"/>
      <point x="369" y="651" type="curve" smooth="yes"/>
      <point x="168" y="651"/>
      <point x="179" y="386"/>
      <point x="179" y="386" type="curve"/>
      <point x="159" y="386" type="line"/>
      <point x="159" y="640" type="line"/>
    </contour>
  </outline>
</glyph>
<glyph name="o" format="2">
  <advance width="617"/>
  <unicode hex="006F"/>
  <outline>
    <contour>
      <point x="82" y="332" type="curve"/>
      <point x="82" y="405"/>
      <point x="154" y="425"/>
      <point x="239" y="425" type="curve"/>
      <point x="325" y="425"/>
      <point x="396" y="405"/>
      <point x="396" y="332" type="curve"/>
      <point x="396" y="259"/>
      <point x="325" y="238"/>
      <point x="239" y="238" type="curve"/>
      <point x="154" y="238"/>
      <point x="82" y="259"/>
    </contour>
    <contour>
      <point x="587" y="323" type="curve"/>
      <point x="587" y="584"/>
      <point x="453" y="656"/>
      <point x="294" y="656" type="curve"/>
      <point x="133" y="656"/>
      <point x="0" y="584"/>
      <point x="0" y="323" type="curve"/>
      <point x="0" y="62"/>
      <point x="133" y="-11"/>
      <point x="294" y="-11" type="curve"/>
      <point x="453" y="-11"/>
      <point x="587" y="62"/>
    </contour>
  </outline>
</glyph>
<glyph name="r" format="2">
  <advance width="437"/>
  <unicode hex="0072"/>
  <outline>
    <contour>
      <point x="0" y="640" type="line"/>
      <point x="0" y="392" type="line"/>
      <point x="14" y="392"/>
      <point x="62" y="388"/>
      <point x="62" y="316" type="curve" smooth="yes"/>
      <point x="62" y="252"/>
      <point x="14" y="247"/>
      <point x="0" y="247" type="curve"/>
      <point x="0" y="-1" type="line"/>
      <point x="258" y="-1" type="line"/>
      <point x="258" y="247" type="line"/>
      <point x="241" y="247"/>
      <point x="202" y="252"/>
      <point x="202" y="316" type="curve" smooth="yes"/>
      <point x="202" y="331" type="line"/>
      <point x="202" y="369"/>
      <point x="221" y="407"/>
      <point x="284" y="423" type="curve" smooth="yes"/>
      <point x="312" y="430"/>
      <point x="355" y="430"/>
      <point x="397" y="427" type="curve"/>
      <point x="397" y="640" type="line"/>
      <point x="388" y="641"/>
      <point x="379" y="641"/>
      <point x="369" y="641" type="curve" smooth="yes"/>
      <point x="168" y="641"/>
      <point x="179" y="386"/>
      <point x="179" y="386" type="curve"/>
      <point x="159" y="386" type="line"/>
      <point x="159" y="640" type="line"/>
    </contour>
  </outline>
</glyph>
<glyph name="t" format="2">
  <advance width="397"/>
  <unicode hex="0074"/>
  <guideline x="299" y="523" angle="0" identifier="XExOQRlfov"/>
  <outline>
    <contour>
      <point x="331" y="248" type="line"/>
      <point x="331" y="203"/>
      <point x="322.0" y="181.0"/>
      <point x="291" y="181" type="curve" smooth="yes"/>
      <point x="262.0" y="181.0"/>
      <point x="253.0" y="203.0"/>
      <point x="253" y="248" type="curve" smooth="yes"/>
      <point x="253" y="439" type="line"/>
      <point x="322" y="439" type="line"/>
      <point x="322" y="605" type="line"/>
      <point x="224" y="589" type="line"/>
      <point x="224" y="728" type="line"/>
      <point x="156" y="728" type="line"/>
      <point x="156" y="635"/>
      <point x="47" y="523"/>
      <point x="0" y="523" type="curve"/>
      <point x="0" y="439" type="line"/>
      <point x="37" y="439"/>
      <point x="62.0" y="414.0"/>
      <point x="62" y="377" type="curve" smooth="yes"/>
      <point x="62" y="201" type="line" smooth="yes"/>
      <point x="62.00000000000001" y="67.99624065463414"/>
      <point x="110.0" y="-9.0"/>
      <point x="203" y="-9" type="curve" smooth="yes"/>
      <point x="314.0" y="-9.0"/>
      <point x="357.0" y="58.0"/>
      <point x="357" y="201" type="curve" smooth="yes"/>
      <point x="357" y="248" type="line"/>
    </contour>
  </outline>
</glyph>
<glyph name="v" format="2">
  <advance width="579"/>
  <unicode hex="0076"/>
  <outline>
    <contour>
      <point x="0" y="392" type="line"/>
      <point x="9" y="392" type="line" smooth="yes"/>
      <point x="34" y="392"/>
      <point x="50" y="380"/>
      <point x="57" y="355" type="curve" smooth="yes"/>
      <point x="156" y="-1" type="line"/>
      <point x="439" y="-1" type="line"/>
      <point x="439" y="248" type="line"/>
      <point x="415" y="248"/>
      <point x="391" y="276"/>
      <point x="412" y="337" type="curve" smooth="yes"/>
      <point x="429" y="387"/>
      <point x="476" y="392"/>
      <point x="530" y="392" type="curve" smooth="yes"/>
      <point x="539" y="392" type="line"/>
      <point x="539" y="640" type="line"/>
      <point x="336" y="640" type="line"/>
      <point x="336" y="392" type="line"/>
      <point x="358" y="392"/>
      <point x="373" y="375"/>
      <point x="366" y="355" type="curve" smooth="yes"/>
      <point x="318" y="210" type="line"/>
      <point x="275" y="348" type="line" smooth="yes"/>
      <point x="268" y="371"/>
      <point x="279" y="392"/>
      <point x="299" y="392" type="curve"/>
      <point x="299" y="640" type="line"/>
      <point x="0" y="640" type="line"/>
    </contour>
  </outline>
</glyph>
<glyph name="z" format="2">
  <advance width="596"/>
  <unicode hex="007A"/>
  <guideline x="-25" y="391" angle="0" identifier="JI7RGGVWqa"/>
  <guideline x="390" y="268" angle="90" identifier="6eJFYr973u"/>
  <outline>
    <contour>
      <point x="390" y="314" type="line"/>
      <point x="390" y="302" type="line" smooth="yes"/>
      <point x="390" y="260"/>
      <point x="363" y="248"/>
      <point x="313" y="248" type="curve"/>
      <point x="211" y="248" type="line"/>
      <point x="211" y="263" type="line"/>
      <point x="556" y="427" type="line"/>
      <point x="556" y="640" type="line"/>
      <point x="0" y="640" type="line"/>
      <point x="0" y="345" type="line"/>
      <point x="51" y="345" type="line"/>
      <point x="57" y="389"/>
      <point x="64" y="391"/>
      <point x="159" y="391" type="curve"/>
      <point x="358" y="391" type="line"/>
      <point x="358" y="374" type="line"/>
      <point x="0" y="210" type="line"/>
      <point x="0" y="0" type="line"/>
      <point x="181" y="0" type="line"/>
      <point x="183" y="25"/>
      <point x="199" y="35"/>
      <point x="223" y="36" type="curve"/>
      <point x="278" y="36"/>
      <point x="293" y="-12"/>
      <point x="400" y="-12" type="curve"/>
      <point x="458" y="-11"/>
      <point x="513" y="3"/>
      <point x="556" y="29" type="curve"/>
      <point x="556" y="314" type="line"/>
    </contour>
  </outline>
</glyph>
<glyph name="cent" format="2">
  <advance width="572"/>
  <unicode hex="00A2"/>
  <outline>
    <contour>
      <point x="250.0" y="-75" type="curve"/>
      <point x="282.0" y="-75" type="line"/>
      <point x="280.0" y="22"/>
      <point x="280.0" y="199"/>
      <point x="280.0" y="333" type="curve" smooth="yes"/>
      <point x="280.0" y="467"/>
      <point x="280.0" y="558"/>
      <point x="282.0" y="730" type="curve"/>
      <point x="250.0" y="730" type="line"/>
      <point x="252.0" y="558"/>
      <point x="252.0" y="467"/>
      <point x="252.0" y="333" type="curve" smooth="yes"/>
      <point x="252.0" y="199"/>
      <point x="252.0" y="22"/>
    </contour>
    <component base="c"/>
  </outline>
</glyph>
<glyph name="macron" format="2">
  <advance width="314"/>
  <unicode hex="00AF"/>
  <guideline x="157.0" y="0" angle="90.0" identifier="IwnRdU3hNA"/>
  <outline>
    <contour>
      <point x="294" y="845" type="curve"/>
      <point x="294" y="888" type="line"/>
      <point x="279" y="885"/>
      <point x="204" y="872"/>
      <point x="157" y="872" type="curve" smooth="yes"/>
      <point x="110" y="872"/>
      <point x="39" y="885"/>
      <point x="20" y="888" type="curve"/>
      <point x="20" y="845" type="line"/>
      <point x="39" y="850"/>
      <point x="110" y="860"/>
      <point x="157" y="860" type="curve" smooth="yes"/>
      <point x="204" y="860"/>
      <point x="279" y="850"/>
    </contour>
  </outline>
</glyph>
<glyph name="acute" format="2">
  <advance width="307"/>
  <unicode hex="00B4"/>
  <outline>
    <contour>
      <point x="20" y="818" type="curve"/>
      <point x="20" y="780" type="line"/>
      <point x="130" y="780"/>
      <point x="246" y="837"/>
      <point x="287" y="876" type="curve"/>
      <point x="277" y="889" type="line"/>
      <point x="214" y="842"/>
      <point x="133" y="818"/>
    </contour>
  </outline>
</glyph>
<glyph name="multiply" format="2">
  <advance width="354"/>
  <unicode hex="00D7"/>
  <outline>
    <contour>
      <point x="314" y="517" type="curve"/>
      <point x="291" y="540" type="line"/>
      <point x="255" y="501"/>
      <point x="189" y="435"/>
      <point x="138" y="384" type="curve" smooth="yes"/>
      <point x="88" y="334"/>
      <point x="66" y="312"/>
      <point x="0" y="249" type="curve"/>
      <point x="23" y="226" type="line"/>
      <point x="86" y="292"/>
      <point x="108" y="314"/>
      <point x="158" y="364" type="curve" smooth="yes"/>
      <point x="209" y="415"/>
      <point x="275" y="481"/>
    </contour>
    <contour>
      <point x="23" y="540" type="curve"/>
      <point x="0" y="517" type="line"/>
      <point x="39" y="481"/>
      <point x="105" y="415"/>
      <point x="156" y="364" type="curve" smooth="yes"/>
      <point x="206" y="314"/>
      <point x="228" y="292"/>
      <point x="291" y="226" type="curve"/>
      <point x="314" y="249" type="line"/>
      <point x="248" y="312"/>
      <point x="226" y="334"/>
      <point x="176" y="384" type="curve" smooth="yes"/>
      <point x="125" y="435"/>
      <point x="59" y="501"/>
    </contour>
  </outline>
</glyph>
<glyph name="aogonek" format="2">
  <advance width="619"/>
  <unicode hex="0105"/>
  <outline>
    <contour>
      <point x="495" y="-26" type="line"/>
      <point x="579" y="-26" type="line"/>
      <point x="579" y="122" type="line"/>
      <point x="495" y="122" type="line"/>
    </contour>
    <component base="a"/>
    <component base="ogonek" xOffset="394"/>
  </outline>
</glyph>
<glyph name="hbar" format="2">
  <advance width="662"/>
  <unicode hex="0127"/>
  <outline>
    <contour>
      <point x="258" y="310" type="curve"/>
      <point x="258" y="342" type="line"/>
      <point x="226" y="340"/>
      <point x="170" y="340"/>
      <point x="127" y="340" type="curve" smooth="yes"/>
      <point x="86" y="340"/>
      <point x="54" y="340"/>
      <point x="0" y="342" type="curve"/>
      <point x="0" y="310" type="line"/>
      <point x="54" y="312"/>
      <point x="86" y="312"/>
      <point x="127" y="312" type="curve" smooth="yes"/>
      <point x="170" y="312"/>
      <point x="226" y="312"/>
    </contour>
    <component base="h"/>
  </outline>
</glyph>
<glyph name="tbar" format="2">
  <advance width="397"/>
  <unicode hex="0167"/>
  <outline>
    <contour>
      <point x="322" y="310" type="curve"/>
      <point x="322" y="342" type="line"/>
      <point x="283" y="340"/>
      <point x="213" y="340"/>
      <point x="160" y="340" type="curve" smooth="yes"/>
      <point x="108" y="340"/>
      <point x="69" y="340"/>
      <point x="2" y="342" type="curve"/>
      <point x="2" y="310" type="line"/>
      <point x="69" y="312"/>
      <point x="108" y="312"/>
      <point x="160" y="312" type="curve" smooth="yes"/>
      <point x="213" y="312"/>
      <point x="283" y="312"/>
    </contour>
    <component base="t"/>
  </outline>
</glyph>
<glyph name="ogonek" format="2">
  <advance width="203"/>
  <unicode hex="02DB"/>
  <outline>
    <contour>
      <point x="75" y="0" type="line" smooth="yes"/>
      <point x="46" y="0"/>
      <point x="20" y="-18"/>
      <point x="20" y="-48" type="curve"/>
      <point x="20" y="-92"/>
      <point x="50" y="-115"/>
      <point x="96" y="-115" type="curve" smooth="yes"/>
      <point x="137" y="-115"/>
      <point x="164" y="-97"/>
      <point x="173" y="-83" type="curve"/>
      <point x="153" y="-48" type="line"/>
      <point x="143" y="-61"/>
      <point x="122" y="-70"/>
      <point x="96" y="-70" type="curve" smooth="yes"/>
      <point x="69" y="-70"/>
      <point x="31" y="-65"/>
      <point x="31" y="-48" type="curve" smooth="yes"/>
      <point x="31" y="-25"/>
      <point x="62" y="-26"/>
      <point x="77" y="-26" type="curve" smooth="yes"/>
      <point x="183" y="-26" type="line"/>
      <point x="183" y="0" type="line"/>
    </contour>
  </outline>
</glyph>
<glyph name="Euro" format="2">
  <advance width="712"/>
  <unicode hex="20AC"/>
  <guideline x="532" y="406" angle="0" identifier="edspz4Uf1Q"/>
  <guideline x="545" y="373" angle="0" identifier="xf99sOGSSN"/>
  <outline>
    <contour>
      <point x="451" y="395" type="curve"/>
      <point x="451" y="427" type="line"/>
      <point x="394" y="425"/>
      <point x="291" y="425"/>
      <point x="212" y="425" type="curve" smooth="yes"/>
      <point x="134" y="425"/>
      <point x="100" y="425"/>
      <point x="0" y="427" type="curve"/>
      <point x="0" y="395" type="line"/>
      <point x="100" y="397"/>
      <point x="134" y="397"/>
      <point x="212" y="397" type="curve" smooth="yes"/>
      <point x="291" y="397"/>
      <point x="394" y="397"/>
    </contour>
    <contour>
      <point x="451" y="332" type="curve"/>
      <point x="451" y="364" type="line"/>
      <point x="394" y="362"/>
      <point x="291" y="362"/>
      <point x="212" y="362" type="curve" smooth="yes"/>
      <point x="134" y="362"/>
      <point x="100" y="362"/>
      <point x="0" y="364" type="curve"/>
      <point x="0" y="332" type="line"/>
      <point x="100" y="334"/>
      <point x="134" y="334"/>
      <point x="212" y="334" type="curve" smooth="yes"/>
      <point x="291" y="334"/>
      <point x="394" y="334"/>
    </contour>
    <component base="C" xOffset="48"/>
  </outline>
</glyph>
<glyph name="sym_hoi" format="2">
  <advance width="313"/>
  <guideline x="156.5" y="0" angle="90.0" identifier="V3hMg5OJGY"/>
  <outline>
    <contour>
      <point x="157" y="784" type="curve"/>
      <point x="157" y="804" type="line"/>
      <point x="137" y="804"/>
      <point x="128" y="808"/>
      <point x="128" y="814" type="curve" smooth="yes"/>
      <point x="128" y="822"/>
      <point x="141" y="825"/>
      <point x="157" y="825" type="curve"/>
      <point x="184" y="825"/>
      <point x="211" y="814"/>
      <point x="250" y="814" type="curve" smooth="yes"/>
      <point x="280" y="814"/>
      <point x="293" y="833"/>
      <point x="293" y="850" type="curve" smooth="yes"/>
      <point x="293" y="879"/>
      <point x="257" y="890"/>
      <point x="192" y="890" type="curve" smooth="yes"/>
      <point x="94" y="890"/>
      <point x="20" y="870"/>
      <point x="20" y="870" type="curve"/>
      <point x="20" y="833" type="line"/>
      <point x="49" y="846"/>
      <point x="142" y="877"/>
      <point x="216" y="877" type="curve" smooth="yes"/>
      <point x="255" y="877"/>
      <point x="281" y="864"/>
      <point x="281" y="850" type="curve"/>
      <point x="281" y="840"/>
      <point x="274" y="833"/>
      <point x="250" y="833" type="curve" smooth="yes"/>
      <point x="211" y="833"/>
      <point x="184" y="843"/>
      <point x="157" y="843" type="curve" smooth="yes"/>
      <point x="132" y="843"/>
      <point x="116" y="832"/>
      <point x="116" y="814" type="curve" smooth="yes"/>
      <point x="116" y="789"/>
      <point x="156" y="784"/>
    </contour>
  </outline>
</glyph>
<glyph name="sym_horn_curved" format="2">
  <advance width="283"/>
  <guideline x="240" y="761" angle="0" identifier="XxQcs9r7Ti"/>
  <guideline x="70.03542858721933" y="874.0559794447163" angle="90" identifier="cWsdQzgd5Y"/>
  <guideline x="243" y="869" angle="90" identifier="N4tDwBGiNM"/>
  <guideline x="264" y="876" angle="0" identifier="4PDqiqw72l"/>
  <outline>
    <contour>
      <point x="218" y="809" type="curve"/>
      <point x="218" y="843"/>
      <point x="196" y="868"/>
      <point x="149" y="868" type="curve"/>
      <point x="111" y="868"/>
      <point x="94" y="848"/>
      <point x="94" y="822" type="curve"/>
      <point x="94" y="809"/>
      <point x="106" y="780"/>
      <point x="148" y="780" type="curve"/>
      <point x="171" y="780"/>
      <point x="191" y="800"/>
      <point x="191" y="809" type="curve"/>
      <point x="191" y="809"/>
      <point x="203" y="805"/>
      <point x="203" y="805" type="curve" smooth="yes"/>
      <point x="203" y="770"/>
      <point x="156" y="746"/>
      <point x="86" y="746" type="curve" smooth="yes"/>
      <point x="30" y="746"/>
      <point x="-21" y="761"/>
      <point x="-102" y="761" type="curve"/>
      <point x="-102" y="701" type="line"/>
      <point x="86.0" y="701" type="line"/>
      <point x="86.0" y="719" type="line"/>
      <point x="86.0" y="719"/>
      <point x="218" y="721"/>
    </contour>
  </outline>
</glyph>
<glyph name="sym_horn_straight" format="2">
  <advance width="206"/>
  <outline>
    <contour>
      <point x="166" y="699" type="line" smooth="yes"/>
      <point x="166" y="739"/>
      <point x="138" y="758"/>
      <point x="95" y="758" type="curve"/>
      <point x="61" y="758"/>
      <point x="42" y="737"/>
      <point x="42" y="714" type="curve"/>
      <point x="42" y="689"/>
      <point x="64" y="670"/>
      <point x="95" y="670" type="curve"/>
      <point x="116" y="670"/>
      <point x="139" y="687"/>
      <point x="139" y="699" type="curve"/>
      <point x="152" y="699" type="line"/>
      <point x="152" y="655"/>
      <point x="106" y="640"/>
      <point x="89" y="640" type="curve"/>
      <point x="166" y="640" type="line"/>
    </contour>
  </outline>
</glyph>
